<svg width="35" height="35" viewBox="0 0 35 35" fill="none" xmlns="http://www.w3.org/2000/svg">
<path d="M15.3125 9.29688C15.6145 9.29688 15.8594 9.05203 15.8594 8.75C15.8594 8.44797 15.6145 8.20312 15.3125 8.20312C15.0105 8.20312 14.7656 8.44797 14.7656 8.75C14.7656 9.05203 15.0105 9.29688 15.3125 9.29688Z" fill="#8F1F30"/>
<path d="M19.6875 9.29688C19.9895 9.29688 20.2344 9.05203 20.2344 8.75C20.2344 8.44797 19.9895 8.20312 19.6875 8.20312C19.3855 8.20312 19.1406 8.44797 19.1406 8.75C19.1406 9.05203 19.3855 9.29688 19.6875 9.29688Z" fill="#8F1F30"/>
<path d="M18.0469 12.5781H15.8594V13.6719H18.0469C19.2533 13.6719 20.2344 12.6908 20.2344 11.4844H19.1406C19.1406 12.0876 18.6501 12.5781 18.0469 12.5781Z" fill="#8F1F30"/>
<path d="M16.9531 8.20312H18.0469V10.3906H16.9531V8.20312Z" fill="#8F1F30"/>
<path d="M2.73438 23.5156H3.82812V24.6094H2.73438V23.5156Z" fill="#8F1F30"/>
<path d="M4.92188 23.5156H8.20312V24.6094H4.92188V23.5156Z" fill="#8F1F30"/>
<path d="M2.73438 25.7031H8.20312V26.7969H2.73438V25.7031Z" fill="#8F1F30"/>
<path d="M2.73438 27.8906H8.20312V28.9844H2.73438V27.8906Z" fill="#8F1F30"/>
<path d="M28.2777 28.5977L27.5044 29.371L29.577 31.4437L34.3338 25.498L33.4795 24.8145L29.4863 29.8063L28.2777 28.5977Z" fill="#8F1F30"/>
<path d="M32.2656 32.2656H26.7969V26.7969H30.0781V25.7031H25.7031V28.9844H20.2344V28.4375C20.2344 28.1602 20.1923 27.8884 20.1124 27.6287C26.1018 26.4141 30.625 21.1083 30.625 14.7656C30.625 9.81313 27.8955 5.35445 23.4965 3.09203C22.4044 1.55477 20.6139 0.546875 18.5888 0.546875H16.6168C15.0188 0.546875 13.5751 1.31578 12.6689 2.56375C7.70328 4.5325 4.375 9.41281 4.375 14.7656C4.375 17.0904 4.97984 19.3386 6.13156 21.3281H1.64062C1.03742 21.3281 0.546875 21.8187 0.546875 22.4219V32.2656C0.546875 32.8688 1.03742 33.3594 1.64062 33.3594H9.29688C9.90008 33.3594 10.3906 32.8688 10.3906 32.2656V30.0781H14.7656V32.8125C14.7656 33.717 15.5017 34.4531 16.4062 34.4531H18.5938C19.4983 34.4531 20.2344 33.717 20.2344 32.8125V30.0781H25.7031V33.3594H33.3594V28.9844H32.2656V32.2656ZM19.1406 28.4375V28.9844H15.8594V28.4375C15.8594 28.2144 15.9075 27.9973 15.9934 27.7955C16.4905 27.8518 16.992 27.8906 17.5 27.8906C18.0102 27.8906 18.5134 27.8584 19.0088 27.8015C19.093 28.0016 19.1406 28.216 19.1406 28.4375ZM29.5312 14.7656C29.5312 21.3998 24.1341 26.7969 17.5 26.7969C14.9127 26.7969 12.4627 25.9864 10.3906 24.4634V23.0606C12.3047 24.7034 14.7859 25.7031 17.5 25.7031C23.5309 25.7031 28.4375 20.7966 28.4375 14.7656C28.4375 11.5511 27.0413 8.53836 24.6039 6.45422C24.5935 5.90898 24.5115 5.3818 24.3649 4.88086C27.5882 7.11102 29.5312 10.763 29.5312 14.7656ZM12.5781 11.4844C11.9749 11.4844 11.4844 10.9938 11.4844 10.3906C11.4844 9.78742 11.9749 9.29688 12.5781 9.29688V11.4844ZM10.523 7.82633L10.786 9.14266C10.5383 9.49703 10.3906 9.92633 10.3906 10.3906C10.3906 11.597 11.3717 12.5781 12.5781 12.5781H12.6219C12.8242 13.982 13.7884 15.1391 15.0823 15.6187L14.8712 16.4642C12.4928 16.8465 10.5071 18.5073 9.69391 20.7391C8.42133 19.0799 7.65625 17.0127 7.65625 14.7656C7.65625 12.1401 8.69203 9.66438 10.523 7.82633ZM22.4219 9.29688C23.0251 9.29688 23.5156 9.78742 23.5156 10.3906C23.5156 10.9938 23.0251 11.4844 22.4219 11.4844V9.29688ZM22.3781 12.5781H22.4219C23.6283 12.5781 24.6094 11.597 24.6094 10.3906C24.6094 9.92633 24.4617 9.49703 24.2134 9.14211L24.4765 7.82578C26.308 9.66438 27.3438 12.1395 27.3438 14.7656C27.3438 17.0127 26.5787 19.0799 25.3061 20.7386C24.4929 18.5073 22.5072 16.8459 20.1288 16.4637L19.9177 15.6182C21.2116 15.1391 22.1758 13.982 22.3781 12.5781ZM16.4062 15.8594H18.5938C18.6791 15.8594 18.7633 15.8523 18.847 15.8468L19.0679 16.7311L17.4737 17.9102L15.9299 16.736L16.1525 15.8462C16.2367 15.8523 16.3209 15.8594 16.4062 15.8594ZM20.1009 17.5651L19.8264 18.9377L18.5866 18.4472L19.833 17.5252C19.9227 17.5383 20.0129 17.5487 20.1009 17.5651ZM17.622 20.2344H17.3168L17.0264 19.3632L17.4721 19.1827L17.9145 19.3577L17.622 20.2344ZM16.3734 18.4472L15.1725 18.9334L14.8991 17.5656C14.986 17.5492 15.0746 17.5388 15.1627 17.5268L16.3734 18.4472ZM13.8463 17.8795L14.3588 20.4416L16.0103 19.7739L16.3543 20.8048L15.4809 24.3988C13.5762 24.0002 11.871 23.0502 10.5432 21.7224C10.9583 19.968 12.2145 18.5445 13.8463 17.8795ZM17.3523 21.3281H17.5919L18.4231 24.5623C18.1191 24.5913 17.8117 24.6094 17.5 24.6094C17.185 24.6094 16.8744 24.5913 16.5665 24.5623L17.3523 21.3281ZM19.5114 24.4016L18.5861 20.8015L18.9328 19.7608L20.6418 20.4373L21.1531 17.8795C22.785 18.5445 24.0412 19.968 24.4568 21.723C23.1273 23.053 21.42 24.0034 19.5114 24.4016ZM21.3281 12.0312C21.3281 13.539 20.1015 14.7656 18.5938 14.7656H16.4062C14.8985 14.7656 13.6719 13.539 13.6719 12.0312V7.65625C13.6719 6.75172 14.408 6.01562 15.3125 6.01562H15.6034C16.2045 6.68664 17.0773 7.10938 18.0469 7.10938H20.7812C21.0826 7.10938 21.3281 7.35492 21.3281 7.65625V12.0312ZM16.6168 1.64062H18.5888C21.3052 1.64062 23.5156 3.85109 23.5156 6.56742C23.5156 6.89172 23.4834 7.21656 23.4199 7.53375L23.2526 8.36937C22.9961 8.26328 22.7161 8.20312 22.4219 8.20312V7.65625C22.4219 6.75172 21.6858 6.01562 20.7812 6.01562H18.0469C16.8405 6.01562 15.8594 5.03453 15.8594 3.82812H14.7656C14.7656 4.21969 14.8345 4.59594 14.9609 4.9443C13.6188 5.11711 12.5781 6.26773 12.5781 7.65625V8.20312C12.2839 8.20312 12.0039 8.26328 11.7469 8.36937L11.5407 7.33687C11.5035 7.14984 11.4844 6.95844 11.4844 6.76758C11.4844 5.79469 11.9673 4.8918 12.7766 4.35258L13.0227 4.18852L13.0862 4.03047C13.667 2.57906 15.0527 1.64062 16.6168 1.64062ZM5.46875 14.7656C5.46875 10.6455 7.62234 6.83375 11.007 4.6468C10.6701 5.18328 10.4634 5.79578 10.4109 6.44164C7.96414 8.52688 6.5625 11.5445 6.5625 14.7656C6.5625 17.2293 7.39102 19.4977 8.77078 21.3281H7.42273C6.14797 19.3747 5.46875 17.1139 5.46875 14.7656ZM1.64062 32.2656V22.4219H9.29688L9.29742 32.2656H1.64062ZM10.3906 28.9844V25.801C11.772 26.6952 13.2923 27.3016 14.8903 27.6227C14.8088 27.8841 14.7656 28.158 14.7656 28.4375V28.9844H10.3906ZM19.1406 32.8125C19.1406 33.1138 18.8951 33.3594 18.5938 33.3594H16.4062C16.1049 33.3594 15.8594 33.1138 15.8594 32.8125V30.0781H19.1406V32.8125Z" fill="#8F1F30"/>
<path d="M2.73438 30.0781H8.20312V31.1719H2.73438V30.0781Z" fill="#8F1F30"/>
</svg>
