<svg width="35" height="35" viewBox="0 0 35 35" fill="none" xmlns="http://www.w3.org/2000/svg">
<path d="M22.0115 0.000305176C19.5567 0.000305176 17.1657 0.689353 15.097 1.99287C14.7776 2.19418 14.6818 2.61623 14.8831 2.93566C15.0844 3.25517 15.5065 3.35094 15.8259 3.14955C17.6761 1.98371 19.8151 1.36746 22.0116 1.36746C28.4193 1.36746 33.6324 6.58057 33.6324 12.9883C33.6324 19.396 28.4193 24.6091 22.0116 24.6091C15.6039 24.6091 10.3908 19.396 10.3908 12.9883C10.3908 10.7915 11.007 8.6525 12.1729 6.80267C12.3742 6.48323 12.2785 6.06112 11.9591 5.85988C11.6397 5.65849 11.2175 5.75426 11.0163 6.0737C9.71265 8.14221 9.0236 10.5332 9.0236 12.9883C9.0236 15.8306 9.94206 18.4621 11.4967 20.603L10.3277 21.772C9.56554 21.409 8.62412 21.5421 7.99406 22.1722L0.599173 29.567C-0.200341 30.3666 -0.200409 31.6676 0.599173 32.4672L2.53261 34.4007C2.9189 34.7869 3.43391 34.9997 3.98268 34.9997C4.53153 34.9997 5.04654 34.787 5.43276 34.4007L12.8275 27.0059C13.2137 26.6196 13.4265 26.1046 13.4265 25.5558C13.4265 25.2444 13.3579 24.944 13.2282 24.6718L14.3968 23.5031C16.5377 25.0578 19.1691 25.9762 22.0115 25.9762C29.1731 25.9762 34.9995 20.1499 34.9995 12.9882C34.9995 5.82659 29.1732 0.000305176 22.0115 0.000305176ZM11.8609 26.0392L4.46611 33.4339C4.33808 33.5619 4.16643 33.6325 3.98275 33.6325C3.79907 33.6325 3.62743 33.5619 3.49939 33.4339L1.56596 31.5004C1.29943 31.234 1.29943 30.8003 1.56596 30.5337L8.96071 23.1389C9.09394 23.0057 9.26894 22.939 9.444 22.939C9.61907 22.939 9.79413 23.0057 9.92736 23.1389L11.8609 25.0724C11.9889 25.2004 12.0594 25.3721 12.0594 25.5557C12.0594 25.7393 11.989 25.9111 11.8609 26.0392ZM12.3442 23.6223L11.3775 22.6555L12.3616 21.6715C12.6668 22.0103 12.9895 22.333 13.3283 22.6382L12.3442 23.6223Z" fill="#8F1F30"/>
<path d="M30.1056 18.1419C30.4374 18.3217 30.8524 18.1985 31.0323 17.8666C31.8389 16.3781 32.2652 14.6911 32.2652 12.9881C32.2652 7.33424 27.6654 2.73444 22.0115 2.73444C16.3576 2.73444 11.7578 7.33424 11.7578 12.9881C11.7578 18.642 16.3576 23.2418 22.0115 23.2418C23.7146 23.2418 25.4016 22.8155 26.89 22.0088C27.2219 21.8289 27.3452 21.4141 27.1653 21.0821C26.9854 20.7502 26.5703 20.6271 26.2385 20.8068C24.9495 21.5054 23.4878 21.8747 22.0114 21.8747C17.1114 21.8747 13.1249 17.8882 13.1249 12.9881C13.1249 8.08802 17.1114 4.10159 22.0114 4.10159C26.9115 4.10159 30.898 8.08802 30.898 12.9881C30.898 14.4644 30.5288 15.9261 29.8302 17.2152C29.6504 17.5472 29.7737 17.962 30.1056 18.1419Z" fill="#8F1F30"/>
<path d="M13.3112 4.97109C13.4753 4.97109 13.6401 4.91237 13.7711 4.79322C14.0504 4.53927 14.071 4.10696 13.8171 3.82758C13.5631 3.54819 13.1307 3.52769 12.8514 3.78157L12.8511 3.78191C12.5718 4.03587 12.5513 4.46804 12.8053 4.74742C12.9402 4.89583 13.1253 4.97109 13.3112 4.97109Z" fill="#8F1F30"/>
<path d="M28.7788 20.4388C28.9331 20.4388 29.0885 20.3867 29.2162 20.2803C29.5063 20.0386 29.5454 19.6075 29.3038 19.3175C29.0619 19.0274 28.6309 18.9884 28.341 19.23L28.3406 19.2303C28.0506 19.472 28.0116 19.9029 28.2532 20.1929C28.3885 20.3551 28.5829 20.4388 28.7788 20.4388Z" fill="#8F1F30"/>
<path d="M29.1709 13.3836C29.3386 13.1468 29.3386 12.8299 29.1709 12.5932C27.6851 10.496 24.9417 9.19324 22.0114 9.19324C19.0811 9.19324 16.3377 10.4961 14.8519 12.5932C14.6841 12.8299 14.6841 13.1468 14.8519 13.3836C16.3377 15.4807 19.0811 16.7834 22.0114 16.7834C24.9417 16.7834 27.6851 15.4807 29.1709 13.3836ZM24.4394 12.9883C24.4394 14.3271 23.3501 15.4163 22.0114 15.4163C20.6726 15.4163 19.5834 14.3271 19.5834 12.9883C19.5834 11.6496 20.6726 10.5604 22.0114 10.5604C23.3501 10.5604 24.4394 11.6496 24.4394 12.9883ZM16.2754 12.9884C16.8901 12.2686 17.701 11.6832 18.6306 11.2676C18.3664 11.7845 18.2163 12.3691 18.2163 12.9883C18.2163 13.6077 18.3664 14.1923 18.6306 14.7092C17.701 14.2936 16.8901 13.7082 16.2754 12.9884ZM25.3922 14.7092C25.6564 14.1922 25.8065 13.6077 25.8065 12.9883C25.8065 12.369 25.6565 11.7844 25.3923 11.2675C26.3217 11.6832 27.1327 12.2685 27.7474 12.9883C27.1326 13.7082 26.3217 14.2935 25.3922 14.7092Z" fill="#8F1F30"/>
<path d="M22.0112 13.6719H22.0118C22.3893 13.6719 22.6951 13.3658 22.6951 12.9883C22.6951 12.6108 22.3888 12.3047 22.0112 12.3047C21.6337 12.3047 21.3276 12.6108 21.3276 12.9883C21.3276 13.3658 21.6337 13.6719 22.0112 13.6719Z" fill="#8F1F30"/>
</svg>
