<svg width="31" height="33" viewBox="0 0 31 33" fill="none" xmlns="http://www.w3.org/2000/svg">
<path d="M28.3516 29.4453H11.9453C11.2895 29.4453 10.7578 28.9136 10.7578 28.2578V3.10156C10.7578 2.44573 11.2895 1.91406 11.9453 1.91406H24.6866L29.5391 6.2813V28.2578C29.5391 28.9136 29.0074 29.4453 28.3516 29.4453Z" stroke="#8F1F30" stroke-width="2"/>
<path d="M25.0703 0.914062V3.64844C25.0703 4.85655 26.0497 5.83594 27.2578 5.83594H30.5391L25.0703 0.914062Z" fill="#8F1F30"/>
<path d="M15.396 6H14.4793C13.8475 6 13.3335 6.51402 13.3335 7.14583V9.89583C13.3335 10.0224 13.4361 10.125 13.5627 10.125C13.6892 10.125 13.7918 10.0224 13.7918 9.89583V8.29167H14.9377C15.0642 8.29167 15.1668 8.18906 15.1668 8.0625C15.1668 7.93594 15.0642 7.83333 14.9377 7.83333H13.7918V7.14583C13.7918 6.76673 14.1002 6.45833 14.4793 6.45833H15.396C15.5226 6.45833 15.6252 6.35572 15.6252 6.22917C15.6252 6.10261 15.5226 6 15.396 6Z" fill="#8F1F30"/>
<path d="M17.2308 6C16.599 6 16.085 6.51402 16.085 7.14583V9.89583C16.085 10.0224 16.1876 10.125 16.3141 10.125C16.4407 10.125 16.5433 10.0224 16.5433 9.89583V8.29167H17.9183V9.89583C17.9183 10.0224 18.0209 10.125 18.1475 10.125C18.274 10.125 18.3766 10.0224 18.3766 9.89583V7.14583C18.3766 6.51402 17.8626 6 17.2308 6ZM16.5433 7.83333V7.14583C16.5433 6.76673 16.8517 6.45833 17.2308 6.45833C17.6099 6.45833 17.9183 6.76673 17.9183 7.14583V7.83333H16.5433Z" fill="#8F1F30"/>
<path d="M20.4378 6.45833H21.3545C21.481 6.45833 21.5837 6.35572 21.5837 6.22917C21.5837 6.10261 21.481 6 21.3545 6H20.4378C19.806 6 19.292 6.51402 19.292 7.14583V8.97917C19.292 9.61098 19.806 10.125 20.4378 10.125H21.3545C21.481 10.125 21.5837 10.0224 21.5837 9.89583C21.5837 9.76928 21.481 9.66667 21.3545 9.66667H20.4378C20.0587 9.66667 19.7503 9.35827 19.7503 8.97917V7.14583C19.7503 6.76673 20.0587 6.45833 20.4378 6.45833Z" fill="#8F1F30"/>
<path d="M24.1055 6H22.2721C22.1456 6 22.043 6.10261 22.043 6.22917C22.043 6.35572 22.1456 6.45833 22.2721 6.45833H22.9596V9.89583C22.9596 10.0224 23.0622 10.125 23.1888 10.125C23.3154 10.125 23.418 10.0224 23.418 9.89583V6.45833H24.1055C24.232 6.45833 24.3346 6.35572 24.3346 6.22917C24.3346 6.10261 24.232 6 24.1055 6Z" fill="#8F1F30"/>
<path d="M26.8535 7.375C26.98 7.375 27.0826 7.27239 27.0826 7.14583V6.87731C27.0826 6.39354 26.6891 6 26.2053 6H25.6683C25.1846 6 24.791 6.39354 24.791 6.87731C24.791 7.11169 24.8823 7.33203 25.048 7.49766L26.5016 8.95132C26.5808 9.0305 26.6243 9.13569 26.6243 9.24764C26.6243 9.47864 26.4364 9.66661 26.2054 9.66661H25.6684C25.4374 9.66661 25.2494 9.47864 25.2494 9.24764V8.97917C25.2494 8.85261 25.1468 8.75 25.0202 8.75C24.8937 8.75 24.7911 8.85261 24.7911 8.97917V9.24769C24.7911 9.73146 25.1846 10.125 25.6684 10.125H26.2054C26.6891 10.125 27.0827 9.73146 27.0827 9.24769C27.0827 9.01331 26.9914 8.79297 26.8257 8.62734L25.3721 7.17368C25.2929 7.0945 25.2493 6.98931 25.2493 6.87736C25.2493 6.64636 25.4373 6.45839 25.6683 6.45839H26.2053C26.4363 6.45839 26.6243 6.64636 26.6243 6.87736V7.14583C26.6243 7.27239 26.7269 7.375 26.8535 7.375Z" fill="#8F1F30"/>
<path d="M27.2578 16.1875H15.7734C15.1693 16.1875 14.6797 15.6978 14.6797 15.0938C14.6797 14.4897 15.1693 14 15.7734 14H27.2578C27.8619 14 28.3516 14.4897 28.3516 15.0938C28.3516 15.6978 27.8619 16.1875 27.2578 16.1875Z" fill="#8F1F30"/>
<path d="M27.2578 20.5625H13.0391C12.435 20.5625 11.9453 20.0728 11.9453 19.4688C11.9453 18.8647 12.435 18.375 13.0391 18.375H27.2578C27.8619 18.375 28.3516 18.8647 28.3516 19.4688C28.3516 20.0728 27.8619 20.5625 27.2578 20.5625Z" fill="#8F1F30"/>
<path d="M24.5234 24.9375H13.0391C12.435 24.9375 11.9453 24.4478 11.9453 23.8438C11.9453 23.2397 12.435 22.75 13.0391 22.75H24.5234C25.1275 22.75 25.6172 23.2397 25.6172 23.8438C25.6172 24.4478 25.1275 24.9375 24.5234 24.9375Z" fill="#8F1F30"/>
<path d="M9.21094 32.0859C9.815 32.0859 10.3047 31.5962 10.3047 30.9922C10.3047 30.3881 9.815 29.8984 9.21094 29.8984C8.60688 29.8984 8.11719 30.3881 8.11719 30.9922C8.11719 31.5962 8.60688 32.0859 9.21094 32.0859Z" fill="#8F1F30"/>
<path d="M9.21094 29.8984V32.0859C9.81503 32.0859 10.3047 31.5963 10.3047 30.9922C10.3047 30.3881 9.81503 29.8984 9.21094 29.8984Z" fill="#8F1F30"/>
<path d="M14.7734 15.6797C14.7734 19.3558 11.7933 22.3359 8.11719 22.3359C4.44104 22.3359 1.46094 19.3558 1.46094 15.6797C1.46094 12.0035 4.44104 9.02344 8.11719 9.02344C11.7933 9.02344 14.7734 12.0035 14.7734 15.6797Z" stroke="#8F1F30" stroke-width="2"/>
<path d="M8.11719 21.1484C11.1375 21.1484 13.5859 18.7 13.5859 15.6797C13.5859 12.6594 11.1375 10.2109 8.11719 10.2109C5.09688 10.2109 2.64844 12.6594 2.64844 15.6797C2.64844 18.7 5.09688 21.1484 8.11719 21.1484Z" fill="#D7E6F0"/>
<path d="M8.11719 23.3359H10.3047V24.4297H8.11719V23.3359Z" fill="#8F1F30"/>
<path d="M8.11719 23.3359V23.8828H8.66406C8.96607 23.8828 9.21094 24.1277 9.21094 24.4297H10.3047V23.3359H8.11719Z" fill="#8F1F30"/>
<path d="M10.3047 30.9922H8.11719C7.81518 30.9922 7.57031 30.7473 7.57031 30.4453V24.9766C7.57031 24.6746 7.81518 24.4297 8.11719 24.4297H10.3047C10.6067 24.4297 10.8516 24.6746 10.8516 24.9766V30.4453C10.8516 30.7473 10.6067 30.9922 10.3047 30.9922Z" fill="#8F1F30"/>
<path d="M10.3047 30.9922H9.21094V24.4297H10.3047C10.6067 24.4297 10.8516 24.6746 10.8516 24.9766V30.4453C10.8516 30.7473 10.6067 30.9922 10.3047 30.9922Z" fill="#8F1F30"/>
<path d="M9.66401 15.6797L11.0782 14.2655C11.5053 13.8384 11.5053 13.1459 11.0782 12.7188C10.651 12.2917 9.9585 12.2917 9.53139 12.7188L8.11724 14.1329L6.70309 12.7188C6.27598 12.2917 5.58343 12.2917 5.15632 12.7188C4.72914 13.1459 4.72914 13.8384 5.15632 14.2655L6.57047 15.6797L5.15632 17.0938C4.72914 17.5209 4.72914 18.2135 5.15632 18.6406C5.36994 18.8542 5.64981 18.9609 5.92974 18.9609C6.20967 18.9609 6.48953 18.8541 6.70309 18.6405L8.11724 17.2265L9.53139 18.6406C9.74494 18.8542 10.0248 18.9609 10.3047 18.9609C10.5847 18.9609 10.8645 18.8541 11.0781 18.6405C11.5053 18.2134 11.5053 17.5209 11.0781 17.0938L9.66401 15.6797Z" fill="#8F1F30"/>
</svg>
