<svg width="35" height="35" viewBox="0 0 35 35" fill="none" xmlns="http://www.w3.org/2000/svg">
<g clip-path="url(#clip0_19_282)">
<path d="M25.9274 14.1666H26.6806C27.9904 14.1666 29.1071 13.3261 29.521 12.1564H33.9745C35.335 12.1021 35.334 10.1592 33.9745 10.1056H29.5044C29.0777 8.96008 27.973 8.14189 26.6806 8.14189H26.1263C26.0322 6.4647 25.4602 4.87664 24.4754 3.53666H33.9745C35.335 3.48246 35.334 1.53955 33.9745 1.48589H22.367C22.3616 1.48589 22.3563 1.48664 22.3509 1.48671C20.9443 0.529131 19.2861 0.00925897 17.548 -0.000106245C17.5309 -0.000379682 17.5139 0.00119258 17.4968 0.00180781C17.4819 0.00119258 17.4673 -0.000448041 17.4523 -0.000106245C15.7098 0.00932733 14.0477 0.531729 12.639 1.49368C12.5994 1.48903 12.5592 1.48596 12.5183 1.48596H1.02535C-0.335135 1.54016 -0.334109 3.48307 1.02535 3.53673H10.5245C9.53977 4.87664 8.96774 6.46476 8.87361 8.14196H8.31928C7.02688 8.14196 5.92233 8.96015 5.4955 10.1056H1.02535C-0.335135 10.1599 -0.334109 12.1028 1.02535 12.1564H5.47889C5.8928 13.3262 7.00945 14.1667 8.31921 14.1667H9.07246C9.4844 15.9688 10.4704 17.5548 11.8273 18.7214L1.02535 18.7252C-0.335135 18.7794 -0.334109 20.7223 1.02535 20.776H6.61256C5.73544 21.8005 5.20388 23.1292 5.20388 24.5804V27.3448H1.02535C-0.335135 27.399 -0.334109 29.3419 1.02535 29.3956H5.20388V33.9743C5.20388 34.5406 5.66298 34.9997 6.22927 34.9997H28.7705C29.3368 34.9997 29.7959 34.5406 29.7959 33.9743V29.3956H33.9745C35.335 29.3414 35.334 27.3985 33.9745 27.3448H29.796V24.5804C29.796 23.1291 29.2644 21.8005 28.3873 20.776H33.9745C35.335 20.7218 35.334 18.7789 33.9745 18.7252L23.1726 18.7214C24.5294 17.5547 25.5155 15.9688 25.9274 14.1666ZM27.6423 11.1543C27.6423 11.6845 27.2108 12.1158 26.6806 12.1158H26.1407V10.1927H26.6806C27.2108 10.1927 27.6423 10.6241 27.6423 11.1543ZM18.5253 2.13038C21.3366 2.57273 23.567 4.80357 24.0098 7.61081H21.4346C19.8304 7.61081 18.5253 6.30672 18.5253 4.70376V2.13038ZM16.4745 4.70376C16.4745 6.30672 15.1694 7.61081 13.5652 7.61081H10.9901C11.4328 4.80357 13.6631 2.57273 16.4745 2.13038V4.70376ZM7.35767 11.1542C7.35767 10.624 7.78909 10.1927 8.31928 10.1927H8.85925V12.1158H8.31928C7.78902 12.1158 7.35767 11.6845 7.35767 11.1542ZM11.6255 32.949V26.4186H23.3744V32.949H11.6255ZM27.7452 24.5804V32.949H25.4252V25.3932C25.4252 24.8269 24.9661 24.3678 24.3998 24.3678H10.6002C10.0339 24.3678 9.57477 24.8269 9.57477 25.3932V32.949H7.25472V24.5804C7.25472 22.5308 8.88249 20.8551 10.913 20.776H24.087C26.1174 20.8551 27.7452 22.5308 27.7452 24.5804ZM17.0836 18.7214C13.6538 18.5703 10.91 15.7349 10.91 12.2707V9.66165H13.5653C15.1668 9.66165 16.5925 8.89842 17.5 7.71752C18.4075 8.89842 19.8332 9.66165 21.4347 9.66165H24.09V12.2707C24.09 15.7349 21.3462 18.5703 17.9164 18.7214H17.0836Z" fill="#8F1F30"/>
<path d="M20.111 28.6578H14.8925C13.532 28.712 13.5331 30.6549 14.8925 30.7086H20.111C21.4715 30.6544 21.4705 28.7115 20.111 28.6578Z" fill="#8F1F30"/>
</g>
<defs>
<clipPath id="clip0_19_282">
<rect width="35" height="35" fill="white"/>
</clipPath>
</defs>
</svg>
