<svg width="7" height="12" viewBox="0 0 7 12" fill="none" xmlns="http://www.w3.org/2000/svg">
<path fill-rule="evenodd" clip-rule="evenodd" d="M6.47746 5.90738C6.72729 5.28966 6.27266 4.61538 5.60634 4.61538C5.08737 4.61538 4.66667 4.19468 4.66667 3.67571V2.76923C4.66667 2.25969 5.0848 2.30769 5.6 2.30769C6.11547 2.30769 6.53333 1.88982 6.53333 1.37436V1.15385C6.53333 0.516594 6.01674 0 5.37949 0H4.66667C3.92406 0 3.21187 0.291757 2.68677 0.811089C2.16167 1.33042 1.86667 2.03479 1.86667 2.76923V3.68205C1.86667 4.19752 1.4488 4.61538 0.933333 4.61538C0.417868 4.61538 0 5.03325 0 5.54872V5.98974C0 6.50521 0.417868 6.92308 0.933333 6.92308C1.4488 6.92308 1.86667 7.34094 1.86667 7.85641V10.6C1.86667 11.3732 2.49347 12 3.26667 12C4.03987 12 4.66667 11.3732 4.66667 10.6V7.75927C4.66667 7.29746 5.04104 6.92308 5.50286 6.92308C5.84362 6.92308 6.1503 6.7163 6.27806 6.4004L6.47746 5.90738Z" fill="#BD011C"/>
</svg>
