<svg width="56" height="23" viewBox="0 0 56 23" fill="none" xmlns="http://www.w3.org/2000/svg">
<path d="M0.96 6.52C0.96 4.76 1.68 3.25 3.12 1.99C4.56 0.729999 6.54 0.0999994 9.06 0.0999994C11.2 0.0999994 13.69 0.659999 16.53 1.78V6.67H16.38C16.3 6.59 16.06 6.36 15.66 5.98C15.28 5.6 15.01 5.34 14.85 5.2C14.71 5.06 14.45 4.81 14.07 4.45C13.69 4.09 13.38 3.83 13.14 3.67C12.92 3.49 12.62 3.26 12.24 2.98C11.88 2.7 11.56 2.49 11.28 2.35C11.02 2.21 10.71 2.06 10.35 1.9C10.01 1.74 9.68 1.63 9.36 1.57C9.04 1.49 8.72 1.45 8.4 1.45C7.4 1.45 6.59 1.73 5.97 2.29C5.37 2.85 5.07 3.51 5.07 4.27C5.07 5.41 5.94 6.43 7.68 7.33C8.28 7.63 9.49 8.14 11.31 8.86C15.39 10.54 17.43 12.88 17.43 15.88C17.43 17.96 16.64 19.56 15.06 20.68C13.48 21.8 11.55 22.36 9.27 22.36C6.97 22.36 4.3 21.73 1.26 20.47V15.46H1.47C3.25 17.3 4.56 18.53 5.4 19.15C6.98 20.35 8.43 20.95 9.75 20.95C10.71 20.95 11.52 20.68 12.18 20.14C12.86 19.58 13.2 18.81 13.2 17.83C13.2 16.69 12.72 15.77 11.76 15.07C10.8 14.37 9.35 13.66 7.41 12.94C5.37 12.22 3.78 11.36 2.64 10.36C1.52 9.34 0.96 8.06 0.96 6.52ZM17.8167 21.91C18.6367 20.45 19.5267 18.38 20.4867 15.7L24.6867 4.06C24.8067 3.7 24.8667 3.31 24.8667 2.89C24.8667 2.19 24.6867 1.39 24.3267 0.49V0.399999H29.7867L36.0567 17.08C36.8167 19.1 37.5967 20.71 38.3967 21.91V22H31.1967V21.88C31.2767 21.62 31.3367 21.33 31.3767 21.01C31.4367 20.67 31.4667 20.28 31.4667 19.84C31.4667 19.64 31.4567 19.29 31.4367 18.79C31.4167 18.27 31.2867 17.69 31.0467 17.05L30.1467 14.68H22.3467L21.8367 16.15C21.5967 16.85 21.4767 17.61 21.4767 18.43C21.4767 19.47 21.6667 20.61 22.0467 21.85V22H17.8167V21.91ZM22.8267 13.33H29.6667L26.1567 4L22.8267 13.33ZM41.1621 3.19C43.1421 1.13 45.6521 0.0999994 48.6921 0.0999994C50.6121 0.0999994 53.0321 0.529999 55.9521 1.39V6.82H55.7721C53.3921 3.24 51.1921 1.45 49.1721 1.45C47.5721 1.45 46.2121 2.39 45.0921 4.27C43.9721 6.13 43.4121 8.44 43.4121 11.2C43.4121 13.96 43.9821 16.29 45.1221 18.19C46.2821 20.07 47.6421 21.01 49.2021 21.01C51.1421 21.01 53.3321 19.2 55.7721 15.58H55.9521V21.04C52.9921 21.92 50.5121 22.36 48.5121 22.36C45.5921 22.36 43.1421 21.33 41.1621 19.27C39.1821 17.19 38.1921 14.51 38.1921 11.23C38.1921 7.93 39.1821 5.25 41.1621 3.19Z" fill="#BD011C"/>
</svg>
