<svg width="30" height="30" viewBox="0 0 30 30" fill="none" xmlns="http://www.w3.org/2000/svg">
<g clip-path="url(#clip0_19_144)">
<path fill-rule="evenodd" clip-rule="evenodd" d="M27.5789 26.1304L20.1646 18.7161L21.1126 17.768C21.6421 17.2385 22.3463 16.9468 23.0952 16.9468C23.8442 16.9468 24.5484 17.2385 25.0779 17.768L28.5269 21.2171C29.0564 21.7466 29.3482 22.4508 29.3482 23.1997C29.3482 23.9489 29.0564 24.6529 28.5269 25.1824L27.5789 26.1304Z" fill="#8F1F30"/>
<path fill-rule="evenodd" clip-rule="evenodd" d="M3.21777 1.76928L4.16579 0.821282C4.69531 0.291741 5.39949 0 6.14845 0C6.89741 0 7.60158 0.291741 8.13111 0.821282L11.5803 4.27029C12.6734 5.36337 12.6734 7.14227 11.5803 8.23562L10.6323 9.18361L3.21777 1.76928Z" fill="#8F1F30"/>
<path fill-rule="evenodd" clip-rule="evenodd" d="M26.2734 27.3732C23.7718 29.4464 20.5549 29.8989 16.9104 28.673C13.7883 27.6227 10.3346 25.3102 7.18564 22.1613C4.03669 19.0123 1.72395 15.5586 0.673874 12.4362C-0.551996 8.79199 -0.0994886 5.57518 1.97364 3.07349L9.42383 10.5237C7.82292 13.0193 10.1249 15.9735 11.7491 17.5977C13.3735 19.2219 16.3277 21.524 18.8231 19.9229L26.2734 27.3732Z" fill="#8F1F30"/>
</g>
<defs>
<clipPath id="clip0_19_144">
<rect width="29.3475" height="29.3474" fill="white"/>
</clipPath>
</defs>
</svg>
