<svg width="28" height="18" viewBox="0 0 28 18" fill="none" xmlns="http://www.w3.org/2000/svg">
<path d="M2.60117 5.30432C2.94387 5.49984 3.97689 6.08048 5.70027 7.04598C7.42371 8.01148 8.74399 8.75488 9.66115 9.27624C9.76191 9.3334 9.97599 9.45763 10.3035 9.64911C10.631 9.84072 10.9032 9.99555 11.1198 10.1137C11.3365 10.2317 11.5985 10.3642 11.906 10.5108C12.2135 10.6573 12.5033 10.7675 12.7754 10.8404C13.0476 10.914 13.2995 10.9504 13.5313 10.9504H13.5465H13.5617C13.7935 10.9504 14.0455 10.9139 14.3177 10.8404C14.5897 10.7675 14.8798 10.6572 15.1869 10.5108C15.4942 10.364 15.7563 10.2317 15.973 10.1137C16.1897 9.99555 16.4617 9.84071 16.7893 9.64911C17.1168 9.45746 17.3311 9.3334 17.4319 9.27624C18.3589 8.75488 20.7175 7.43079 24.5069 5.30407C25.2426 4.8887 25.8572 4.38751 26.351 3.80082C26.8451 3.21438 27.0919 2.59919 27.0919 1.95557C27.0919 1.41772 26.8524 0.95732 26.3737 0.5744C25.8949 0.1914 25.3279 0 24.6731 0H2.41971C1.64372 0 1.04654 0.211815 0.628284 0.635443C0.210079 1.05916 0.000976562 1.58879 0.000976562 2.22427C0.000976562 2.73759 0.278226 3.29384 0.832461 3.89268C1.38664 4.49157 1.97641 4.96216 2.60117 5.30432Z" fill="#8F1F30"/>
<path d="M25.579 6.61112C22.2736 8.4198 19.7637 9.82546 18.0506 10.8278C17.4762 11.1698 17.0101 11.4369 16.6523 11.6282C16.2944 11.8197 15.8184 12.0153 15.2236 12.2148C14.6291 12.4146 14.075 12.5142 13.5609 12.5142H13.5455H13.5303C13.0163 12.5142 12.4619 12.4146 11.8674 12.2148C11.2729 12.0153 10.7966 11.8197 10.4388 11.6282C10.0811 11.4369 9.61494 11.1698 9.04054 10.8278C7.67986 10.0212 5.1754 8.61545 1.52704 6.61112C0.952424 6.30168 0.443462 5.94702 0 5.54785V15.2518C0 15.7899 0.236743 16.2501 0.710493 16.6331C1.18414 17.0161 1.75367 17.2076 2.41889 17.2076H24.6723C25.3373 17.2076 25.9068 17.0161 26.3805 16.6331C26.8544 16.25 27.091 15.79 27.091 15.2518V5.54785C26.6576 5.93876 26.1538 6.29343 25.579 6.61112Z" fill="#8F1F30"/>
</svg>
