<svg width="21" height="26" viewBox="0 0 21 26" fill="none" xmlns="http://www.w3.org/2000/svg">
<g clip-path="url(#clip0_19_133)">
<path fill-rule="evenodd" clip-rule="evenodd" d="M9.96009 0.427382C4.89889 0.604968 0.69427 4.55365 0.208524 9.59396C0.109285 10.602 0.166744 11.5787 0.344328 12.5137C0.344328 12.5137 0.359991 12.6234 0.412228 12.8323C0.568919 13.5322 0.803961 14.2112 1.09646 14.8484C2.11496 17.2615 4.47059 21.299 9.75639 25.6916C10.0802 25.9632 10.5555 25.9632 10.8846 25.6916C16.1704 21.3042 18.526 17.2667 19.5497 14.8432C19.8475 14.206 20.0773 13.5322 20.234 12.8271C20.281 12.6234 20.3019 12.5085 20.3019 12.5085C20.422 11.8817 20.4847 11.2392 20.4847 10.5811C20.4847 4.84614 15.7369 0.22368 9.96009 0.427382ZM10.3208 15.6365C7.59432 15.6365 5.38494 13.4271 5.38494 10.7007C5.38494 7.9742 7.59432 5.76482 10.3208 5.76482C13.0473 5.76482 15.2566 7.9742 15.2566 10.7007C15.2566 13.4271 13.0473 15.6365 10.3208 15.6365Z" fill="#8F1F30"/>
</g>
<defs>
<clipPath id="clip0_19_133">
<rect width="20.3245" height="25.4744" fill="white"/>
</clipPath>
</defs>
</svg>
