<svg width="15" height="14" viewBox="0 0 15 14" fill="none" xmlns="http://www.w3.org/2000/svg">
<path d="M14.894 5.25921C14.8426 5.1052 14.7059 4.99296 14.5413 4.96971L9.91743 4.31564L7.84953 0.237096C7.77595 0.0919061 7.62403 0 7.45772 0C7.29137 0 7.13948 0.0919061 7.06587 0.237096L4.99788 4.31564L0.374132 4.96971C0.209568 4.99296 0.0727957 5.1052 0.0214078 5.25918C-0.0300093 5.41319 0.0128723 5.58222 0.131991 5.69523L3.47768 8.86994L2.68799 13.3528C2.65985 13.5123 2.72726 13.6736 2.86181 13.7688C2.93794 13.8226 3.0281 13.85 3.1187 13.85C3.18826 13.85 3.25806 13.8339 3.32198 13.8011L7.45769 11.6846L11.5932 13.8011C11.7405 13.8765 11.9189 13.8639 12.0534 13.7688C12.188 13.6736 12.2554 13.5123 12.2273 13.3527L11.4373 8.86994L14.7834 5.6952C14.9025 5.58222 14.9454 5.41319 14.894 5.25921Z" fill="#FFCA56"/>
</svg>
