<svg width="11" height="9" viewBox="0 0 11 9" fill="none" xmlns="http://www.w3.org/2000/svg">
<path d="M11 1.00421C10.5957 1.18942 10.0838 1.36326 9.625 1.42105C10.0916 1.13495 10.8318 0.539053 11 0C10.5641 0.264789 9.77579 0.547579 9.26154 0.649895C8.85088 0.199895 8.26513 0 7.61613 0C6.36946 0 5.5 1.09184 5.5 2.36842V3.31579C3.66667 3.31579 1.87917 1.87247 0.766792 0.473684C0.565656 0.82624 0.460058 1.22825 0.461083 1.63753C0.461083 2.49916 1.22696 3.37358 1.83333 3.78947C1.46346 3.77763 0.763125 3.48584 0.458333 3.31579V3.34279C0.458333 4.464 1.21963 5.22521 2.25133 5.43742C2.06296 5.49095 1.83333 5.68421 0.949667 5.68421C1.23658 6.60079 2.67896 7.08537 3.66667 7.10526C2.89392 7.72437 1.51617 8.05263 0.458333 8.05263C0.275458 8.05263 0.176458 8.06305 0 8.04174C0.99825 8.69542 2.3925 9 3.66667 9C7.81779 9 10.0833 5.72305 10.0833 2.66684C10.0833 2.56642 10.0801 2.23011 10.0751 2.13158C10.5187 1.80853 10.6984 1.47032 11 1.00421Z" fill="#BD011C"/>
</svg>
